<svg xmlns="http://www.w3.org/2000/svg" width="512" height="512" viewBox="0 0 680 680">
<rect width="680" height="680" rx="120" fill="#f5edd6"/>
<rect x="18" y="18" width="644" height="644" rx="108" fill="none" stroke="#866210" stroke-width="6"/>
<rect x="30" y="30" width="620" height="620" rx="98" fill="none" stroke="#866210" stroke-width="1.5" stroke-dasharray="4 6"/>
<g opacity="0.08">
  <line x1="340" y1="40" x2="340" y2="640" stroke="#1a1208" stroke-width="0.75"/>
  <line x1="40" y1="340" x2="640" y2="340" stroke="#1a1208" stroke-width="0.75"/>
  <line x1="120" y1="120" x2="560" y2="560" stroke="#1a1208" stroke-width="0.75"/>
  <line x1="560" y1="120" x2="120" y2="560" stroke="#1a1208" stroke-width="0.75"/>
</g>
<circle cx="340" cy="340" r="260" fill="none" stroke="#866210" stroke-width="1" opacity="0.4"/>
<circle cx="340" cy="340" r="140" fill="none" stroke="#866210" stroke-width="1" opacity="0.3"/>
<text x="340" y="430" opacity="0.12" font-size="280" fill="#c0392b" text-anchor="middle" font-family="serif">易</text>
<text x="340" y="425" font-size="220" fill="#c0392b" text-anchor="middle" font-family="serif">易</text>
<g fill="#1a1208" opacity="0.75">
  <rect x="308" y="64" width="64" height="7" rx="2"/>
  <rect x="308" y="76" width="64" height="7" rx="2"/>
  <rect x="308" y="88" width="64" height="7" rx="2"/>
  <rect x="522" y="158" width="28" height="7" rx="2"/>
  <rect x="556" y="158" width="28" height="7" rx="2"/>
  <rect x="522" y="170" width="62" height="7" rx="2"/>
  <rect x="522" y="182" width="62" height="7" rx="2"/>
  <rect x="566" y="308" width="62" height="7" rx="2"/>
  <rect x="566" y="320" width="28" height="7" rx="2"/>
  <rect x="602" y="320" width="28" height="7" rx="2"/>
  <rect x="566" y="332" width="62" height="7" rx="2"/>
  <rect x="524" y="502" width="28" height="7" rx="2"/>
  <rect x="558" y="502" width="28" height="7" rx="2"/>
  <rect x="524" y="514" width="28" height="7" rx="2"/>
  <rect x="558" y="514" width="28" height="7" rx="2"/>
  <rect x="524" y="526" width="62" height="7" rx="2"/>
  <rect x="308" y="576" width="28" height="7" rx="2"/>
  <rect x="344" y="576" width="28" height="7" rx="2"/>
  <rect x="308" y="588" width="28" height="7" rx="2"/>
  <rect x="344" y="588" width="28" height="7" rx="2"/>
  <rect x="308" y="600" width="28" height="7" rx="2"/>
  <rect x="344" y="600" width="28" height="7" rx="2"/>
  <rect x="96" y="502" width="62" height="7" rx="2"/>
  <rect x="96" y="514" width="62" height="7" rx="2"/>
  <rect x="96" y="526" width="28" height="7" rx="2"/>
  <rect x="130" y="526" width="28" height="7" rx="2"/>
  <rect x="52" y="308" width="62" height="7" rx="2"/>
  <rect x="52" y="320" width="28" height="7" rx="2"/>
  <rect x="86" y="320" width="28" height="7" rx="2"/>
  <rect x="52" y="332" width="62" height="7" rx="2"/>
  <rect x="96" y="158" width="62" height="7" rx="2"/>
  <rect x="96" y="170" width="28" height="7" rx="2"/>
  <rect x="130" y="170" width="28" height="7" rx="2"/>
  <rect x="96" y="182" width="28" height="7" rx="2"/>
  <rect x="130" y="182" width="28" height="7" rx="2"/>
</g>
<circle cx="340" cy="340" r="52" fill="#f5edd6" stroke="#866210" stroke-width="1.5"/>
<text x="340" y="348" font-family="serif" font-size="40" fill="#c0392b" text-anchor="middle" dominant-baseline="middle">☯</text>
</svg>
